<mxfile host="app.diagrams.net" modified="2023-11-23T07:51:26.583Z" agent="Mozilla/5.0 (Windows NT 10.0; Win64; x64) AppleWebKit/537.36 (KHTML, like Gecko) Chrome/119.0.0.0 Safari/537.36" version="22.1.3" etag="9pTRDzpf54MnmtklSTRO" type="github">
  <diagram name="第 1 页" id="b-na5-dn75b1nsfIloDy">
    <mxGraphModel>
      <root>
        <mxCell id="0" />
        <mxCell id="1" parent="0" />
      </root>
    </mxGraphModel>
  </diagram>
</mxfile>
